<?xml version="1.0" encoding="UTF-8"?><svg id="Layer_2" xmlns="http://www.w3.org/2000/svg" xmlns:xlink="http://www.w3.org/1999/xlink" viewBox="0 0 2400 450"><defs><style>.cls-1{fill:none;}.cls-2{clip-path:url(#clippath);}.cls-3{fill:#ffc522;}</style><clipPath id="clippath"><rect class="cls-1" x="0" width="2400" height="450"/></clipPath></defs><g id="shapes"><g class="cls-2"><g><path class="cls-3" d="M515.62-915.36h178.13c102.88,22.47,191.24,74.14,274.46,136.25,35.01,26.13,69.99,52.33,105.56,77.7,130.67,93.19,274.03,153.78,434.84,171.02,119.92,12.86,240.12,2.08,360.09,6.95,254.64,10.34,461.34,106.31,531.3,376.83V-5.98c-4.46,16.52-8.75,33.09-13.41,49.56-40.28,142.18-113.41,199.59-260.23,196.68-85.09-1.69-167.99,7.52-249.74,29.44-106.91,28.67-214.59,34.97-324.36,18.47-86.12-12.94-171.95-23.92-260.44-12.8-104.71,13.16-208.86,34.54-316.14,24.94-112.76-10.1-221.72-33.19-327.22-73.74-75.2-28.9-151.74-32.49-229.6-11.83-45.19,11.99-90.03,26.18-135.92,34.46C154.8,272.32,51.84,206.53,15.44,80.83,9.82,61.41,5.12,41.71,0,22.14,0-68.48,0-159.11,0-249.73c2.23-12.19,4.76-24.32,6.63-36.56,47.09-308.89,188.63-541.31,509-629.06Z"/><path class="cls-3" d="M918.75,444.02c-70.66-12.5-135.53-47.4-202.02-74.28-85.5-34.56-173.25-45.85-265.55-34.42,39.84-37.73,88.57-40.66,137.62-38.55,61.38,2.63,121.15,16.74,176.9,41.76,137.79,61.84,276.3,68.12,418.95,17.65,120.16-42.51,241.68-42.93,362.74-.81,128.97,44.87,257.03,41.07,385.58-4.1,60.27-21.18,122.04-39.2,185.88-46.82,29.84-3.56,60.95-10.38,89.98,12.5-152.39,21.06-284.84,114.33-436.94,127.08-34.25,2.87-68.99,4.07-103.13,0-67.7-8.08-132.6-31.85-198.8-48.19-64.4-15.9-129.06-17.2-193.48-1.95-66.36,15.71-130.68,41.68-198.35,50.15-52.71,6.59-107.06,9.25-159.38,0Z"/></g></g></g></svg>