<?xml version="1.0" encoding="UTF-8"?><svg id="Layer_2" xmlns="http://www.w3.org/2000/svg" viewBox="0 0 2400 200"><defs><style>.cls-1{fill:none;}.cls-2{fill:#ffc522;}</style></defs><g id="shapes"><path class="cls-1" d="M0,0V50c33.73,15.08,69.74,27.94,108.04,38.58,112.81,31.36,228.1,45.22,344.59,48.48,250.98,7.04,499.83-20.6,747.69-55.32,116.85-16.37,202.33-10.06,314.81,23.79,153.57,46.23,458.58,122.02,607.22,84.24,48.5-12.33,75.97-22.26,112.64-36.52,68.9-26.79,123.96,4.92,165.02-17.86V0H0Z"/><path class="cls-2" d="M2400,0H0C33.73,15.08,69.74,27.94,108.04,38.58c112.81,31.36,228.1,45.22,344.59,48.48,250.98,7.04,499.83-20.6,747.69-55.32,116.85-16.37,202.33-10.06,314.81,23.79,153.57,46.23,458.58,122.02,607.22,84.24,48.5-12.33,75.97-22.26,112.64-36.52,68.9-26.79,123.96,4.92,165.02-17.86V0Z"/></g></svg>